# xmcd
# 
# Track frame offsets:
#     150
#     13380
#     23105
#     36341
#     67530
#     90151
#     99381
#     109155
#     131755
#     141147
#     154801
#     164758
#     177082
#     190194
#     199793
# 
# Disc length: 2826
# 
# Revision: 1
# Processed by: cddbd v1.5.2PL0 Copyright (c) Steve Scherf et al.
# Submitted via: fre:ac v1.0.17
# 
DISCID=c40b080f
DTITLE=Various Artist - Simply Divas CD 2
DYEAR=2008
DGENRE=Blues
TTITLE0=Anita O'day - Georgia On my mind
TTITLE1=Dina Washington - September in the rain
TTITLE2=sarah vaughan and dizzy gillespie - body and soul
TTITLE3=nina simone - the house of the rising sun
TTITLE4=ethel ennis - if women ruled the worled
TTITLE5=irma thomas - it's raining
TTITLE6=doris duke - I can't do without you
TTITLE7=nina simone - I loves you peggy
TTITLE8=gladys knight and the pips - Every beat of my heart
TTITLE9=the ad libs - The boys from new york city
TTITLE10=betty everett - Getting mighty crowded
TTITLE11=irma thomas - ruler of my heart
TTITLE12=ella washington - too weak to fight
TTITLE13=betty everett - to hot tohold
TTITLE14=deniece chandler - love is tears
EXTD=YEAR: 2008
EXTT0=
EXTT1=
EXTT2=
EXTT3=
EXTT4=
EXTT5=
EXTT6=
EXTT7=
EXTT8=
EXTT9=
EXTT10=
EXTT11=
EXTT12=
EXTT13=
EXTT14=
PLAYORDER=
